# xmcd
#
# Track frame offsets: 
#        150
#        6652
#        26239
#        44031
#        55204
#        70611
#        76554
#        88166
#        111005
#        123064
#        147579
#        174964
#        203299
#        236730
#
# Disc length: 3391 seconds
#
# Revision: 6
# Processed by: cddbd v1.5.2PL0 Copyright (c) Steve Scherf et al.
# Submitted via: ExactAudioCopy v1.0b3
#
DISCID=b70d3d0e
DTITLE=Gabriel Dupont - Oeuvres complètes pour piano seul  (Émile Naou
DTITLE=moff, piano)  [CD 1-2]
DYEAR=2004
DGENRE=Classical
TTITLE0=Les Heures dolentes  [1905] - Epigraphe
TTITLE1=Les Heures dolentes - Le soir tombe dans la chambre
TTITLE2=Les Heures dolentes - Du soleil au jardin
TTITLE3=Les Heures dolentes - Chanson de la pluie
TTITLE4=Les Heures dolentes - Après-midi de dimanche
TTITLE5=Les Heures dolentes - Le médecin
TTITLE6=Les Heures dolentes - Une amie est venue avec des fleurs
TTITLE7=Les Heures dolentes - La chanson du vent
TTITLE8=Les Heures dolentes - Au coin du feu
TTITLE9=Les Heures dolentes - Coquetteries
TTITLE10=Les Heures dolentes - La mort rôde
TTITLE11=Les Heures dolentes - Des enfants jouent dans le jardin
TTITLE12=Les Heures dolentes - Nuit blanche - Hallucinations
TTITLE13=Les Heures dolentes - Calme
EXTD=YEAR: 2004
EXTT0=
EXTT1=
EXTT2=
EXTT3=
EXTT4=
EXTT5=
EXTT6=
EXTT7=
EXTT8=
EXTT9=
EXTT10=
EXTT11=
EXTT12=
EXTT13=
PLAYORDER=
